<svg width="10" height="10" viewBox="0 0 10 10" fill="none" xmlns="http://www.w3.org/2000/svg">
<path d="M7.9157 8.33332C4.36086 8.33836 1.66295 5.60811 1.66675 2.08437C1.66675 1.85425 1.8533 1.66666 2.08342 1.66666H3.18315C3.38964 1.66666 3.56505 1.81838 3.59537 2.02263C3.66804 2.51216 3.81057 2.98873 4.01862 3.43778L4.06143 3.5302C4.12097 3.6587 4.08061 3.81138 3.96536 3.89369C3.62479 4.1369 3.49463 4.62647 3.75995 5.00847C4.09291 5.48784 4.5126 5.90745 4.99186 6.24025C5.37384 6.50549 5.86333 6.37535 6.10654 6.03484C6.1889 5.91953 6.34167 5.87916 6.47025 5.93872L6.56224 5.98133C7.01133 6.18936 7.48793 6.3319 7.97751 6.40455C8.18177 6.43487 8.33341 6.61027 8.33341 6.81677V7.91665C8.33341 8.14677 8.14641 8.33332 7.91629 8.33331L7.9157 8.33332Z" fill="#79819A"/>
</svg>
